# xmcd CD database file
#
# Track frame offsets:
#	150
#	21407
#	40232
#	61542
#	82787
#	101612
#
# Disc length: 1636 seconds
#
# Revision: 0
# Processed by: cddbd v1.5.2PL0 Copyright (c) Steve Scherf et al.
# Submitted via: CDex 1.70beta3
#
DISCID=3b066206
DTITLE=樋井明日香 - 明日への光
DYEAR=2007
DGENRE=VISION FACTORY
TTITLE0=明日への光
TTITLE1=VOICES
TTITLE2=君がいた場所
TTITLE3=明日への光 (Instrumental)
TTITLE4=VOICES (Instrumental)
TTITLE5=君がいた場所 (Instrumental)
EXTD=YEAR: 2007
EXTT0=
EXTT1=
EXTT2=
EXTT3=
EXTT4=
EXTT5=
PLAYORDER=
